<mxfile host="Electron" modified="2023-07-18T09:51:58.515Z" agent="Mozilla/5.0 (Windows NT 10.0; Win64; x64) AppleWebKit/537.36 (KHTML, like Gecko) draw.io/21.6.1 Chrome/112.0.5615.204 Electron/24.6.1 Safari/537.36" etag="l0JOTDQSf6ceCloyk8eb" version="21.6.1" type="device">
  <diagram id="ZvDJRU9PUtHeH6yD3r8d" name="Стандартная версия">
    <mxGraphModel dx="2575" dy="1487" grid="1" gridSize="10" guides="1" tooltips="1" connect="1" arrows="1" fold="1" page="1" pageScale="1" pageWidth="827" pageHeight="1169" math="0" shadow="0">
      <root>
        <mxCell id="0" />
        <mxCell id="1" parent="0" />
        <mxCell id="0wNfYeTfLMhr4SV4lvzk-1" value="" style="rounded=0;whiteSpace=wrap;html=1;fillColor=none;dashed=1;strokeColor=#000000;" parent="1" vertex="1">
          <mxGeometry x="10" y="1180" width="390" height="420" as="geometry" />
        </mxCell>
        <mxCell id="0wNfYeTfLMhr4SV4lvzk-2" style="edgeStyle=orthogonalEdgeStyle;rounded=0;orthogonalLoop=1;jettySize=auto;html=1;entryX=0.5;entryY=0;entryDx=0;entryDy=0;fontSize=12;startArrow=diamond;startFill=0;strokeColor=#CC00CC;exitX=0.675;exitY=1.009;exitDx=0;exitDy=0;exitPerimeter=0;dashed=1;dashPattern=1 1;" parent="1" source="0wNfYeTfLMhr4SV4lvzk-3" target="0wNfYeTfLMhr4SV4lvzk-70" edge="1">
          <mxGeometry relative="1" as="geometry" />
        </mxCell>
        <mxCell id="0wNfYeTfLMhr4SV4lvzk-3" value="" style="rounded=0;whiteSpace=wrap;html=1;fillColor=none;dashed=1;strokeColor=#000000;" parent="1" vertex="1">
          <mxGeometry x="894" y="575" width="490" height="95" as="geometry" />
        </mxCell>
        <mxCell id="0wNfYeTfLMhr4SV4lvzk-14" value="A" style="text;html=1;strokeColor=default;fillColor=default;align=center;verticalAlign=middle;whiteSpace=wrap;rounded=1;" parent="1" vertex="1">
          <mxGeometry x="280" y="38" width="20" height="20" as="geometry" />
        </mxCell>
        <mxCell id="0wNfYeTfLMhr4SV4lvzk-15" value="O" style="text;html=1;strokeColor=default;fillColor=default;align=center;verticalAlign=middle;whiteSpace=wrap;rounded=1;" parent="1" vertex="1">
          <mxGeometry x="280" y="70" width="20" height="20" as="geometry" />
        </mxCell>
        <mxCell id="0wNfYeTfLMhr4SV4lvzk-16" value="Администратор" style="text;html=1;strokeColor=none;fillColor=none;align=left;verticalAlign=middle;whiteSpace=wrap;rounded=0;shadow=0;glass=0;labelBackgroundColor=#FFFFFF;labelBorderColor=none;sketch=0;" parent="1" vertex="1">
          <mxGeometry x="305" y="41" width="150" height="15" as="geometry" />
        </mxCell>
        <mxCell id="0wNfYeTfLMhr4SV4lvzk-17" value="Оператор" style="text;html=1;strokeColor=none;fillColor=none;align=left;verticalAlign=middle;whiteSpace=wrap;rounded=0;shadow=0;glass=0;labelBackgroundColor=#FFFFFF;labelBorderColor=none;sketch=0;" parent="1" vertex="1">
          <mxGeometry x="305" y="73" width="150" height="15" as="geometry" />
        </mxCell>
        <mxCell id="0wNfYeTfLMhr4SV4lvzk-18" value="П" style="text;html=1;strokeColor=default;fillColor=default;align=center;verticalAlign=middle;whiteSpace=wrap;rounded=1;" parent="1" vertex="1">
          <mxGeometry x="280" y="102" width="20" height="20" as="geometry" />
        </mxCell>
        <mxCell id="0wNfYeTfLMhr4SV4lvzk-19" value="Пользователь" style="text;html=1;strokeColor=none;fillColor=none;align=left;verticalAlign=middle;whiteSpace=wrap;rounded=0;shadow=0;glass=0;labelBackgroundColor=#FFFFFF;labelBorderColor=none;sketch=0;" parent="1" vertex="1">
          <mxGeometry x="305" y="105.5" width="150" height="15" as="geometry" />
        </mxCell>
        <mxCell id="0wNfYeTfLMhr4SV4lvzk-20" value="&lt;b&gt;Ограничение уровней доступа на HMI&lt;/b&gt;" style="text;html=1;strokeColor=none;fillColor=none;align=left;verticalAlign=middle;whiteSpace=wrap;rounded=0;shadow=0;glass=0;labelBackgroundColor=#FFFFFF;labelBorderColor=none;sketch=0;" parent="1" vertex="1">
          <mxGeometry x="275" y="10" width="235" height="15" as="geometry" />
        </mxCell>
        <mxCell id="0wNfYeTfLMhr4SV4lvzk-21" value="-" style="text;html=1;strokeColor=default;fillColor=default;align=center;verticalAlign=middle;whiteSpace=wrap;rounded=1;" parent="1" vertex="1">
          <mxGeometry x="280" y="134" width="20" height="20" as="geometry" />
        </mxCell>
        <mxCell id="0wNfYeTfLMhr4SV4lvzk-22" value="Без ограничений" style="text;html=1;strokeColor=none;fillColor=none;align=left;verticalAlign=middle;whiteSpace=wrap;rounded=0;shadow=0;glass=0;labelBackgroundColor=#FFFFFF;labelBorderColor=none;sketch=0;" parent="1" vertex="1">
          <mxGeometry x="305" y="137.5" width="150" height="15" as="geometry" />
        </mxCell>
        <mxCell id="0wNfYeTfLMhr4SV4lvzk-24" value="&lt;b&gt;Сигнал&lt;br&gt;&lt;/b&gt;" style="text;html=1;strokeColor=none;fillColor=none;align=left;verticalAlign=middle;whiteSpace=wrap;rounded=0;shadow=0;glass=0;labelBackgroundColor=#FFFFFF;labelBorderColor=none;sketch=0;" parent="1" vertex="1">
          <mxGeometry x="540" y="10" width="160" height="15" as="geometry" />
        </mxCell>
        <mxCell id="0wNfYeTfLMhr4SV4lvzk-25" style="edgeStyle=orthogonalEdgeStyle;rounded=0;orthogonalLoop=1;jettySize=auto;html=1;dashed=1;dashPattern=1 1;strokeColor=#CC00CC;startArrow=diamond;startFill=0;" parent="1" edge="1">
          <mxGeometry relative="1" as="geometry">
            <mxPoint x="546" y="41" as="sourcePoint" />
            <mxPoint x="546" y="61" as="targetPoint" />
          </mxGeometry>
        </mxCell>
        <mxCell id="0wNfYeTfLMhr4SV4lvzk-26" style="edgeStyle=orthogonalEdgeStyle;rounded=0;orthogonalLoop=1;jettySize=auto;html=1;dashed=1;dashPattern=1 1;strokeColor=#00FF00;startArrow=diamond;startFill=0;" parent="1" edge="1">
          <mxGeometry relative="1" as="geometry">
            <mxPoint x="546" y="70" as="sourcePoint" />
            <mxPoint x="546" y="90" as="targetPoint" />
          </mxGeometry>
        </mxCell>
        <mxCell id="0wNfYeTfLMhr4SV4lvzk-27" value="BOOL = неопределён" style="text;html=1;strokeColor=none;fillColor=none;align=left;verticalAlign=middle;whiteSpace=wrap;rounded=0;shadow=0;glass=0;labelBackgroundColor=#FFFFFF;labelBorderColor=none;sketch=0;" parent="1" vertex="1">
          <mxGeometry x="559" y="41" width="150" height="15" as="geometry" />
        </mxCell>
        <mxCell id="0wNfYeTfLMhr4SV4lvzk-28" value="BOOL = TRUE" style="text;html=1;strokeColor=none;fillColor=none;align=left;verticalAlign=middle;whiteSpace=wrap;rounded=0;shadow=0;glass=0;labelBackgroundColor=#FFFFFF;labelBorderColor=none;sketch=0;" parent="1" vertex="1">
          <mxGeometry x="559" y="73" width="150" height="15" as="geometry" />
        </mxCell>
        <mxCell id="0wNfYeTfLMhr4SV4lvzk-29" value="BOOL = FALSE" style="text;html=1;strokeColor=none;fillColor=none;align=left;verticalAlign=middle;whiteSpace=wrap;rounded=0;shadow=0;glass=0;labelBackgroundColor=#FFFFFF;labelBorderColor=none;sketch=0;" parent="1" vertex="1">
          <mxGeometry x="559" y="105.5" width="150" height="15" as="geometry" />
        </mxCell>
        <mxCell id="0wNfYeTfLMhr4SV4lvzk-30" value="Значение" style="text;html=1;strokeColor=none;fillColor=none;align=left;verticalAlign=middle;whiteSpace=wrap;rounded=0;shadow=0;glass=0;labelBackgroundColor=#FFFFFF;labelBorderColor=none;sketch=0;" parent="1" vertex="1">
          <mxGeometry x="559" y="137.5" width="150" height="15" as="geometry" />
        </mxCell>
        <mxCell id="0wNfYeTfLMhr4SV4lvzk-31" style="edgeStyle=orthogonalEdgeStyle;rounded=0;orthogonalLoop=1;jettySize=auto;html=1;dashed=1;dashPattern=1 1;strokeColor=#FF0000;startArrow=diamond;startFill=0;" parent="1" edge="1">
          <mxGeometry relative="1" as="geometry">
            <mxPoint x="546" y="101" as="sourcePoint" />
            <mxPoint x="546" y="121" as="targetPoint" />
          </mxGeometry>
        </mxCell>
        <mxCell id="0wNfYeTfLMhr4SV4lvzk-32" style="edgeStyle=orthogonalEdgeStyle;rounded=0;orthogonalLoop=1;jettySize=auto;html=1;dashed=1;dashPattern=1 1;strokeColor=#0000FF;startArrow=diamond;startFill=0;" parent="1" edge="1">
          <mxGeometry relative="1" as="geometry">
            <mxPoint x="546" y="130" as="sourcePoint" />
            <mxPoint x="546" y="150" as="targetPoint" />
          </mxGeometry>
        </mxCell>
        <mxCell id="0wNfYeTfLMhr4SV4lvzk-33" value="" style="edgeStyle=orthogonalEdgeStyle;rounded=0;orthogonalLoop=1;jettySize=auto;html=1;exitX=0.75;exitY=1;exitDx=0;exitDy=0;entryX=0.75;entryY=0;entryDx=0;entryDy=0;fontSize=12;startArrow=diamond;startFill=0;dashed=1;dashPattern=1 1;strokeColor=#FF0000;" parent="1" edge="1">
          <mxGeometry relative="1" as="geometry">
            <mxPoint x="474" y="260" as="sourcePoint" />
            <mxPoint x="474" y="310" as="targetPoint" />
          </mxGeometry>
        </mxCell>
        <mxCell id="0wNfYeTfLMhr4SV4lvzk-41" value="АВТО&lt;br&gt;ПУСК" style="rounded=1;whiteSpace=wrap;html=1;fontSize=12;fillColor=#d5e8d4;strokeColor=#82b366;" parent="1" vertex="1">
          <mxGeometry x="1165" y="200" width="120" height="60" as="geometry" />
        </mxCell>
        <mxCell id="0wNfYeTfLMhr4SV4lvzk-48" style="edgeStyle=orthogonalEdgeStyle;rounded=0;orthogonalLoop=1;jettySize=auto;html=1;entryX=0;entryY=0.5;entryDx=0;entryDy=0;dashed=1;dashPattern=1 1;fontSize=12;startArrow=diamond;startFill=0;strokeColor=#00FF00;" parent="1" source="0wNfYeTfLMhr4SV4lvzk-49" edge="1">
          <mxGeometry relative="1" as="geometry">
            <Array as="points">
              <mxPoint x="474" y="490" />
            </Array>
            <mxPoint x="738" y="490" as="targetPoint" />
          </mxGeometry>
        </mxCell>
        <mxCell id="0wNfYeTfLMhr4SV4lvzk-49" value="Авария&lt;br&gt;&quot;выключен защитный автомат&quot;" style="rounded=1;whiteSpace=wrap;html=1;fontSize=12;fillColor=#CCE5FF;strokeColor=#FF0000;shadow=0;glass=0;labelBackgroundColor=none;labelBorderColor=none;sketch=0;strokeWidth=1;" parent="1" vertex="1">
          <mxGeometry x="414" y="310" width="120" height="60" as="geometry" />
        </mxCell>
        <mxCell id="0wNfYeTfLMhr4SV4lvzk-50" style="edgeStyle=orthogonalEdgeStyle;rounded=0;orthogonalLoop=1;jettySize=auto;html=1;fontSize=12;startArrow=none;startFill=0;endArrow=classic;endFill=1;strokeColor=#000000;entryX=0;entryY=0.5;entryDx=0;entryDy=0;" parent="1" edge="1">
          <mxGeometry relative="1" as="geometry">
            <mxPoint x="1014" y="490" as="targetPoint" />
            <mxPoint x="858" y="490" as="sourcePoint" />
          </mxGeometry>
        </mxCell>
        <mxCell id="0wNfYeTfLMhr4SV4lvzk-52" style="edgeStyle=orthogonalEdgeStyle;rounded=0;orthogonalLoop=1;jettySize=auto;html=1;exitX=0.5;exitY=1;exitDx=0;exitDy=0;fontSize=12;startArrow=diamond;startFill=0;strokeColor=#CC00CC;dashed=1;dashPattern=1 1;entryX=0.676;entryY=-0.009;entryDx=0;entryDy=0;entryPerimeter=0;" parent="1" source="0wNfYeTfLMhr4SV4lvzk-55" target="0wNfYeTfLMhr4SV4lvzk-3" edge="1">
          <mxGeometry relative="1" as="geometry" />
        </mxCell>
        <mxCell id="0wNfYeTfLMhr4SV4lvzk-53" style="edgeStyle=orthogonalEdgeStyle;rounded=0;orthogonalLoop=1;jettySize=auto;html=1;exitX=0;exitY=1;exitDx=0;exitDy=0;entryX=0.5;entryY=0;entryDx=0;entryDy=0;fontSize=12;startArrow=diamond;startFill=0;strokeColor=#00FF80;dashed=1;dashPattern=1 1;" parent="1" source="0wNfYeTfLMhr4SV4lvzk-55" target="0wNfYeTfLMhr4SV4lvzk-64" edge="1">
          <mxGeometry relative="1" as="geometry" />
        </mxCell>
        <mxCell id="0wNfYeTfLMhr4SV4lvzk-54" style="edgeStyle=orthogonalEdgeStyle;rounded=0;orthogonalLoop=1;jettySize=auto;html=1;exitX=1;exitY=1;exitDx=0;exitDy=0;entryX=0.5;entryY=0;entryDx=0;entryDy=0;dashed=1;dashPattern=1 1;fontSize=12;startArrow=diamond;startFill=0;strokeColor=#FF0000;" parent="1" source="0wNfYeTfLMhr4SV4lvzk-55" target="0wNfYeTfLMhr4SV4lvzk-62" edge="1">
          <mxGeometry relative="1" as="geometry" />
        </mxCell>
        <mxCell id="0wNfYeTfLMhr4SV4lvzk-55" value="РУЧНОЙ&lt;br&gt;ПУСК" style="rhombus;whiteSpace=wrap;html=1;rounded=1;shadow=0;glass=0;sketch=0;fillColor=#dae8fc;strokeColor=#6c8ebf;" parent="1" vertex="1">
          <mxGeometry x="1185" y="450" width="80" height="80" as="geometry" />
        </mxCell>
        <mxCell id="0wNfYeTfLMhr4SV4lvzk-56" style="edgeStyle=orthogonalEdgeStyle;rounded=0;orthogonalLoop=1;jettySize=auto;html=1;entryX=0.5;entryY=0;entryDx=0;entryDy=0;dashed=1;exitX=0.5;exitY=1;exitDx=0;exitDy=0;" parent="1" source="0wNfYeTfLMhr4SV4lvzk-41" target="0wNfYeTfLMhr4SV4lvzk-55" edge="1">
          <mxGeometry relative="1" as="geometry">
            <mxPoint x="1225" y="400" as="sourcePoint" />
          </mxGeometry>
        </mxCell>
        <mxCell id="0wNfYeTfLMhr4SV4lvzk-57" style="edgeStyle=orthogonalEdgeStyle;rounded=0;orthogonalLoop=1;jettySize=auto;html=1;exitX=0.332;exitY=1.003;exitDx=0;exitDy=0;entryX=0;entryY=0;entryDx=0;entryDy=0;dashed=1;dashPattern=1 1;strokeColor=#CC00CC;startArrow=diamond;startFill=0;exitPerimeter=0;" parent="1" source="0wNfYeTfLMhr4SV4lvzk-41" target="0wNfYeTfLMhr4SV4lvzk-55" edge="1">
          <mxGeometry relative="1" as="geometry">
            <mxPoint x="1205" y="380" as="sourcePoint" />
          </mxGeometry>
        </mxCell>
        <mxCell id="0wNfYeTfLMhr4SV4lvzk-58" value="Авто" style="edgeStyle=orthogonalEdgeStyle;rounded=0;orthogonalLoop=1;jettySize=auto;html=1;entryX=0.88;entryY=-0.009;entryDx=0;entryDy=0;entryPerimeter=0;fontSize=12;startArrow=none;startFill=0;strokeColor=#000000;" parent="1" source="0wNfYeTfLMhr4SV4lvzk-60" target="0wNfYeTfLMhr4SV4lvzk-3" edge="1">
          <mxGeometry relative="1" as="geometry" />
        </mxCell>
        <mxCell id="0wNfYeTfLMhr4SV4lvzk-59" value="Ручной" style="edgeStyle=orthogonalEdgeStyle;rounded=0;orthogonalLoop=1;jettySize=auto;html=1;entryX=1;entryY=0.5;entryDx=0;entryDy=0;fontSize=12;startArrow=none;startFill=0;strokeColor=#000000;exitX=1;exitY=0.5;exitDx=0;exitDy=0;" parent="1" source="0wNfYeTfLMhr4SV4lvzk-60" target="0wNfYeTfLMhr4SV4lvzk-70" edge="1">
          <mxGeometry relative="1" as="geometry">
            <Array as="points">
              <mxPoint x="1424" y="410" />
              <mxPoint x="1424" y="740" />
            </Array>
          </mxGeometry>
        </mxCell>
        <mxCell id="0wNfYeTfLMhr4SV4lvzk-60" value="Режим работы" style="rhombus;whiteSpace=wrap;html=1;fontSize=12;fillColor=#dae8fc;strokeColor=#00A800;rounded=1;shadow=0;glass=0;labelBackgroundColor=none;labelBorderColor=none;sketch=0;strokeWidth=2;" parent="1" vertex="1">
          <mxGeometry x="1284" y="370" width="80" height="80" as="geometry" />
        </mxCell>
        <mxCell id="0wNfYeTfLMhr4SV4lvzk-61" style="edgeStyle=orthogonalEdgeStyle;rounded=0;orthogonalLoop=1;jettySize=auto;html=1;entryX=0.75;entryY=0;entryDx=0;entryDy=0;dashed=1;dashPattern=1 1;fontSize=12;startArrow=diamond;startFill=0;strokeColor=#FF0000;" parent="1" source="0wNfYeTfLMhr4SV4lvzk-62" target="0wNfYeTfLMhr4SV4lvzk-70" edge="1">
          <mxGeometry relative="1" as="geometry" />
        </mxCell>
        <mxCell id="0wNfYeTfLMhr4SV4lvzk-62" value="Запуск таймера&lt;br&gt;&quot;задержка останова&quot;" style="shape=process;whiteSpace=wrap;html=1;backgroundOutline=1;fontSize=12;fillColor=#eeeeee;strokeColor=#36393d;" parent="1" vertex="1">
          <mxGeometry x="1244" y="590" width="120" height="60" as="geometry" />
        </mxCell>
        <mxCell id="0wNfYeTfLMhr4SV4lvzk-63" style="edgeStyle=orthogonalEdgeStyle;rounded=0;orthogonalLoop=1;jettySize=auto;html=1;entryX=0.25;entryY=0;entryDx=0;entryDy=0;dashed=1;dashPattern=1 1;fontSize=12;startArrow=diamond;startFill=0;strokeColor=#00FF00;" parent="1" source="0wNfYeTfLMhr4SV4lvzk-64" target="0wNfYeTfLMhr4SV4lvzk-70" edge="1">
          <mxGeometry relative="1" as="geometry" />
        </mxCell>
        <mxCell id="0wNfYeTfLMhr4SV4lvzk-64" value="Запуск таймера&lt;br&gt;&quot;задержка запуска&quot;" style="shape=process;whiteSpace=wrap;html=1;backgroundOutline=1;fontSize=12;fillColor=#eeeeee;strokeColor=#36393d;" parent="1" vertex="1">
          <mxGeometry x="1084" y="590" width="120" height="60" as="geometry" />
        </mxCell>
        <mxCell id="0wNfYeTfLMhr4SV4lvzk-65" value="Задержка запуска и останова&lt;br&gt;в автоматическом режиме." style="text;html=1;strokeColor=none;fillColor=none;align=left;verticalAlign=middle;whiteSpace=wrap;rounded=0;dashed=1;" parent="1" vertex="1">
          <mxGeometry x="904" y="602" width="210" height="40" as="geometry" />
        </mxCell>
        <mxCell id="IChi7haE0IejocVg19P0-2" value="TRUE" style="edgeStyle=orthogonalEdgeStyle;rounded=0;orthogonalLoop=1;jettySize=auto;html=1;entryX=0.5;entryY=0;entryDx=0;entryDy=0;" parent="1" source="0wNfYeTfLMhr4SV4lvzk-70" target="IChi7haE0IejocVg19P0-1" edge="1">
          <mxGeometry relative="1" as="geometry">
            <Array as="points">
              <mxPoint x="1225" y="800" />
              <mxPoint x="551" y="800" />
            </Array>
          </mxGeometry>
        </mxCell>
        <mxCell id="IChi7haE0IejocVg19P0-73" value="FALSE" style="edgeStyle=orthogonalEdgeStyle;rounded=0;orthogonalLoop=1;jettySize=auto;html=1;startArrow=none;startFill=0;endArrow=classic;endFill=1;strokeColor=#000000;entryX=0.5;entryY=0;entryDx=0;entryDy=0;" parent="1" source="0wNfYeTfLMhr4SV4lvzk-70" edge="1" target="IChi7haE0IejocVg19P0-59">
          <mxGeometry x="0.9228" relative="1" as="geometry">
            <mxPoint x="2033" y="842" as="targetPoint" />
            <Array as="points">
              <mxPoint x="1359" y="760" />
            </Array>
            <mxPoint as="offset" />
          </mxGeometry>
        </mxCell>
        <mxCell id="0wNfYeTfLMhr4SV4lvzk-70" value="Команда запуска" style="rounded=1;whiteSpace=wrap;html=1;fontSize=12;fillColor=#eeeeee;strokeColor=#36393d;" parent="1" vertex="1">
          <mxGeometry x="1165" y="710" width="120" height="60" as="geometry" />
        </mxCell>
        <mxCell id="0wNfYeTfLMhr4SV4lvzk-198" style="edgeStyle=orthogonalEdgeStyle;rounded=0;orthogonalLoop=1;jettySize=auto;html=1;dashed=1;dashPattern=1 1;fontSize=12;startArrow=diamond;startFill=0;endArrow=classic;endFill=1;strokeColor=#FF0000;exitX=1;exitY=0.5;exitDx=0;exitDy=0;entryX=0;entryY=0.5;entryDx=0;entryDy=0;" parent="1" target="0wNfYeTfLMhr4SV4lvzk-55" edge="1">
          <mxGeometry relative="1" as="geometry">
            <mxPoint x="1134" y="490" as="sourcePoint" />
            <mxPoint x="1180" y="490" as="targetPoint" />
          </mxGeometry>
        </mxCell>
        <mxCell id="0wNfYeTfLMhr4SV4lvzk-199" style="edgeStyle=orthogonalEdgeStyle;rounded=0;orthogonalLoop=1;jettySize=auto;html=1;entryX=0;entryY=0.5;entryDx=0;entryDy=0;dashed=1;dashPattern=1 1;fontSize=12;startArrow=diamond;startFill=0;endArrow=classic;endFill=1;strokeColor=#FF0000;exitX=0.5;exitY=1;exitDx=0;exitDy=0;" parent="1" target="0wNfYeTfLMhr4SV4lvzk-70" edge="1">
          <mxGeometry relative="1" as="geometry">
            <mxPoint x="1074" y="520" as="sourcePoint" />
            <Array as="points">
              <mxPoint x="1074" y="740" />
            </Array>
          </mxGeometry>
        </mxCell>
        <mxCell id="0wNfYeTfLMhr4SV4lvzk-205" style="edgeStyle=orthogonalEdgeStyle;rounded=0;orthogonalLoop=1;jettySize=auto;html=1;entryX=1;entryY=0.5;entryDx=0;entryDy=0;dashed=1;dashPattern=1 1;startArrow=diamond;startFill=0;strokeColor=#00FF00;" parent="1" source="0wNfYeTfLMhr4SV4lvzk-207" target="0wNfYeTfLMhr4SV4lvzk-208" edge="1">
          <mxGeometry relative="1" as="geometry">
            <Array as="points">
              <mxPoint x="334" y="1495" />
            </Array>
          </mxGeometry>
        </mxCell>
        <mxCell id="0wNfYeTfLMhr4SV4lvzk-206" style="edgeStyle=orthogonalEdgeStyle;rounded=0;orthogonalLoop=1;jettySize=auto;html=1;entryX=1;entryY=0.5;entryDx=0;entryDy=0;dashed=1;dashPattern=1 1;startArrow=diamond;startFill=0;strokeColor=#00FF00;" parent="1" source="0wNfYeTfLMhr4SV4lvzk-207" target="0wNfYeTfLMhr4SV4lvzk-223" edge="1">
          <mxGeometry relative="1" as="geometry">
            <Array as="points">
              <mxPoint x="334" y="1565" />
            </Array>
          </mxGeometry>
        </mxCell>
        <mxCell id="0wNfYeTfLMhr4SV4lvzk-207" value="pulse_1s" style="rhombus;whiteSpace=wrap;html=1;fontSize=12;fillColor=#eeeeee;strokeColor=#36393d;" parent="1" vertex="1">
          <mxGeometry x="294" y="1382" width="80" height="80" as="geometry" />
        </mxCell>
        <mxCell id="0wNfYeTfLMhr4SV4lvzk-208" value="OpTime = OpTime + 0.00027" style="shape=process;whiteSpace=wrap;html=1;backgroundOutline=1;fontSize=12;fillColor=#eeeeee;strokeColor=#36393d;" parent="1" vertex="1">
          <mxGeometry x="155" y="1470" width="120" height="50" as="geometry" />
        </mxCell>
        <mxCell id="0wNfYeTfLMhr4SV4lvzk-209" style="edgeStyle=orthogonalEdgeStyle;rounded=0;orthogonalLoop=1;jettySize=auto;html=1;entryX=0.5;entryY=0;entryDx=0;entryDy=0;dashed=1;dashPattern=1 1;startArrow=diamond;startFill=0;strokeColor=#00FF00;" parent="1" source="0wNfYeTfLMhr4SV4lvzk-210" target="0wNfYeTfLMhr4SV4lvzk-213" edge="1">
          <mxGeometry relative="1" as="geometry" />
        </mxCell>
        <mxCell id="0wNfYeTfLMhr4SV4lvzk-210" value="CMD.ResetOpTime" style="rounded=1;whiteSpace=wrap;html=1;fontSize=12;fillColor=#dae8fc;strokeColor=#6c8ebf;" parent="1" vertex="1">
          <mxGeometry x="19" y="1190" width="120" height="60" as="geometry" />
        </mxCell>
        <mxCell id="0wNfYeTfLMhr4SV4lvzk-211" style="edgeStyle=orthogonalEdgeStyle;rounded=0;orthogonalLoop=1;jettySize=auto;html=1;entryX=1;entryY=0.383;entryDx=0;entryDy=0;entryPerimeter=0;dashed=1;dashPattern=1 1;startArrow=diamond;startFill=0;strokeColor=#FF0000;" parent="1" source="0wNfYeTfLMhr4SV4lvzk-213" target="0wNfYeTfLMhr4SV4lvzk-210" edge="1">
          <mxGeometry relative="1" as="geometry">
            <Array as="points">
              <mxPoint x="79" y="1353" />
              <mxPoint x="159" y="1353" />
              <mxPoint x="159" y="1213" />
            </Array>
          </mxGeometry>
        </mxCell>
        <mxCell id="0wNfYeTfLMhr4SV4lvzk-212" style="edgeStyle=orthogonalEdgeStyle;rounded=0;orthogonalLoop=1;jettySize=auto;html=1;entryX=0;entryY=0.5;entryDx=0;entryDy=0;dashed=1;dashPattern=1 1;startArrow=diamond;startFill=0;strokeColor=#FF0000;" parent="1" source="0wNfYeTfLMhr4SV4lvzk-213" target="0wNfYeTfLMhr4SV4lvzk-228" edge="1">
          <mxGeometry relative="1" as="geometry">
            <Array as="points">
              <mxPoint x="79" y="1405" />
            </Array>
          </mxGeometry>
        </mxCell>
        <mxCell id="0wNfYeTfLMhr4SV4lvzk-213" value="OpTime = 0" style="shape=process;whiteSpace=wrap;html=1;backgroundOutline=1;fontSize=12;fillColor=#eeeeee;strokeColor=#36393d;" parent="1" vertex="1">
          <mxGeometry x="19" y="1284" width="120" height="50" as="geometry" />
        </mxCell>
        <mxCell id="0wNfYeTfLMhr4SV4lvzk-223" value="OpTime_All = OpTime_All + 0.00027" style="shape=process;whiteSpace=wrap;html=1;backgroundOutline=1;fontSize=12;fillColor=#eeeeee;strokeColor=#36393d;" parent="1" vertex="1">
          <mxGeometry x="155" y="1540" width="120" height="50" as="geometry" />
        </mxCell>
        <mxCell id="0wNfYeTfLMhr4SV4lvzk-224" style="edgeStyle=orthogonalEdgeStyle;rounded=0;orthogonalLoop=1;jettySize=auto;html=1;entryX=0.5;entryY=0;entryDx=0;entryDy=0;dashed=1;dashPattern=1 1;startArrow=diamond;startFill=0;strokeColor=#00FF00;" parent="1" source="0wNfYeTfLMhr4SV4lvzk-225" target="0wNfYeTfLMhr4SV4lvzk-207" edge="1">
          <mxGeometry relative="1" as="geometry" />
        </mxCell>
        <mxCell id="0wNfYeTfLMhr4SV4lvzk-225" value="RUN_Open&lt;br&gt;RUN_Close" style="rhombus;whiteSpace=wrap;html=1;fontSize=12;fillColor=#eeeeee;strokeColor=#36393d;" parent="1" vertex="1">
          <mxGeometry x="295" y="1270" width="80" height="80" as="geometry" />
        </mxCell>
        <mxCell id="0wNfYeTfLMhr4SV4lvzk-226" style="edgeStyle=orthogonalEdgeStyle;rounded=0;orthogonalLoop=1;jettySize=auto;html=1;entryX=0.5;entryY=0;entryDx=0;entryDy=0;dashed=1;dashPattern=1 1;startArrow=diamond;startFill=0;strokeColor=#00FF00;" parent="1" source="0wNfYeTfLMhr4SV4lvzk-227" target="0wNfYeTfLMhr4SV4lvzk-228" edge="1">
          <mxGeometry relative="1" as="geometry" />
        </mxCell>
        <mxCell id="0wNfYeTfLMhr4SV4lvzk-227" value="OpTime &amp;gt;= SP_OpTime" style="rhombus;whiteSpace=wrap;html=1;fontSize=12;fillColor=#eeeeee;strokeColor=#36393d;" parent="1" vertex="1">
          <mxGeometry x="175" y="1270" width="80" height="80" as="geometry" />
        </mxCell>
        <mxCell id="0wNfYeTfLMhr4SV4lvzk-228" value="STATUS.OpTime" style="rounded=1;whiteSpace=wrap;html=1;fontSize=12;fillColor=#CCE5FF;strokeColor=#FF0000;shadow=0;glass=0;labelBackgroundColor=none;labelBorderColor=none;sketch=0;strokeWidth=1;" parent="1" vertex="1">
          <mxGeometry x="155" y="1390" width="120" height="30" as="geometry" />
        </mxCell>
        <mxCell id="0wNfYeTfLMhr4SV4lvzk-229" value="Контроль наработки" style="text;html=1;strokeColor=none;fillColor=none;align=left;verticalAlign=middle;whiteSpace=wrap;rounded=0;dashed=1;" parent="1" vertex="1">
          <mxGeometry x="277" y="1180" width="140" height="40" as="geometry" />
        </mxCell>
        <mxCell id="IChi7haE0IejocVg19P0-6" style="edgeStyle=orthogonalEdgeStyle;rounded=1;orthogonalLoop=1;jettySize=auto;html=1;entryX=0.5;entryY=0;entryDx=0;entryDy=0;startArrow=diamond;startFill=0;dashed=1;dashPattern=1 1;strokeColor=#00FF00;" parent="1" source="IChi7haE0IejocVg19P0-1" target="IChi7haE0IejocVg19P0-16" edge="1">
          <mxGeometry relative="1" as="geometry">
            <mxPoint x="629" y="967" as="targetPoint" />
          </mxGeometry>
        </mxCell>
        <mxCell id="IChi7haE0IejocVg19P0-29" value="TRUE =&amp;gt; SET" style="edgeStyle=orthogonalEdgeStyle;rounded=0;orthogonalLoop=1;jettySize=auto;html=1;entryX=0.5;entryY=0;entryDx=0;entryDy=0;startArrow=none;startFill=0;strokeColor=#000000;" parent="1" source="IChi7haE0IejocVg19P0-1" target="IChi7haE0IejocVg19P0-26" edge="1">
          <mxGeometry relative="1" as="geometry" />
        </mxCell>
        <mxCell id="IChi7haE0IejocVg19P0-75" value="TRUE =&amp;gt; RESET" style="edgeStyle=orthogonalEdgeStyle;rounded=0;orthogonalLoop=1;jettySize=auto;html=1;entryX=0.25;entryY=0;entryDx=0;entryDy=0;startArrow=none;startFill=0;endArrow=classic;endFill=1;strokeColor=#000000;" parent="1" source="IChi7haE0IejocVg19P0-1" target="IChi7haE0IejocVg19P0-57" edge="1">
          <mxGeometry relative="1" as="geometry" />
        </mxCell>
        <mxCell id="IChi7haE0IejocVg19P0-1" value="Цикл открытия" style="rounded=0;whiteSpace=wrap;html=1;fontSize=12;strokeColor=#36393d;fillColor=#eeeeee;" parent="1" vertex="1">
          <mxGeometry x="569" y="870" width="120" height="60" as="geometry" />
        </mxCell>
        <mxCell id="IChi7haE0IejocVg19P0-19" style="edgeStyle=orthogonalEdgeStyle;rounded=1;orthogonalLoop=1;jettySize=auto;html=1;entryX=0.5;entryY=0;entryDx=0;entryDy=0;dashed=1;dashPattern=1 1;startArrow=diamond;startFill=0;strokeColor=#00FF00;" parent="1" source="IChi7haE0IejocVg19P0-16" target="IChi7haE0IejocVg19P0-18" edge="1">
          <mxGeometry relative="1" as="geometry" />
        </mxCell>
        <mxCell id="IChi7haE0IejocVg19P0-16" value="Таймер ОС &lt;br&gt;&quot;Открыто&quot;" style="shape=process;whiteSpace=wrap;html=1;backgroundOutline=1;fillColor=#f5f5f5;fontColor=#333333;strokeColor=#666666;" parent="1" vertex="1">
          <mxGeometry x="569" y="990" width="120" height="60" as="geometry" />
        </mxCell>
        <mxCell id="IChi7haE0IejocVg19P0-23" style="edgeStyle=orthogonalEdgeStyle;rounded=1;orthogonalLoop=1;jettySize=auto;html=1;entryX=0;entryY=0.5;entryDx=0;entryDy=0;dashed=1;dashPattern=1 1;startArrow=diamond;startFill=0;strokeColor=#FF0000;" parent="1" source="IChi7haE0IejocVg19P0-18" target="IChi7haE0IejocVg19P0-22" edge="1">
          <mxGeometry relative="1" as="geometry" />
        </mxCell>
        <mxCell id="IChi7haE0IejocVg19P0-25" style="edgeStyle=orthogonalEdgeStyle;rounded=1;orthogonalLoop=1;jettySize=auto;html=1;entryX=0.5;entryY=0;entryDx=0;entryDy=0;startArrow=none;startFill=0;strokeColor=#000000;" parent="1" source="IChi7haE0IejocVg19P0-18" target="IChi7haE0IejocVg19P0-24" edge="1">
          <mxGeometry relative="1" as="geometry" />
        </mxCell>
        <mxCell id="IChi7haE0IejocVg19P0-18" value="ОС &quot;Открыто&quot;" style="rhombus;whiteSpace=wrap;html=1;fillColor=#f5f5f5;fontColor=#333333;strokeColor=#666666;" parent="1" vertex="1">
          <mxGeometry x="589" y="1085" width="80" height="80" as="geometry" />
        </mxCell>
        <mxCell id="IChi7haE0IejocVg19P0-21" style="edgeStyle=orthogonalEdgeStyle;rounded=1;orthogonalLoop=1;jettySize=auto;html=1;entryX=0;entryY=0.5;entryDx=0;entryDy=0;dashed=1;dashPattern=1 1;startArrow=diamond;startFill=0;strokeColor=#CC00CC;" parent="1" source="IChi7haE0IejocVg19P0-20" target="IChi7haE0IejocVg19P0-18" edge="1">
          <mxGeometry relative="1" as="geometry" />
        </mxCell>
        <mxCell id="IChi7haE0IejocVg19P0-20" value="FB_Open" style="rounded=1;whiteSpace=wrap;html=1;fillColor=#e1d5e7;strokeColor=#9673a6;" parent="1" vertex="1">
          <mxGeometry x="398" y="1095" width="120" height="60" as="geometry" />
        </mxCell>
        <mxCell id="IChi7haE0IejocVg19P0-22" value="Авария код 13" style="shape=process;whiteSpace=wrap;html=1;backgroundOutline=1;fillColor=#CCE5FF;fontColor=default;strokeColor=#FF0000;rounded=1;shadow=0;glass=0;labelBackgroundColor=none;labelBorderColor=none;sketch=0;strokeWidth=1;" parent="1" vertex="1">
          <mxGeometry x="725" y="1107" width="120" height="36" as="geometry" />
        </mxCell>
        <mxCell id="IChi7haE0IejocVg19P0-28" value="FALSE =&amp;gt; RESET" style="edgeStyle=orthogonalEdgeStyle;rounded=0;orthogonalLoop=1;jettySize=auto;html=1;entryX=0;entryY=0.5;entryDx=0;entryDy=0;startArrow=none;startFill=0;strokeColor=#000000;" parent="1" source="IChi7haE0IejocVg19P0-24" target="IChi7haE0IejocVg19P0-26" edge="1">
          <mxGeometry relative="1" as="geometry" />
        </mxCell>
        <mxCell id="IChi7haE0IejocVg19P0-24" value="Пневматика" style="rhombus;whiteSpace=wrap;html=1;fillColor=#f5f5f5;fontColor=#333333;strokeColor=#666666;" parent="1" vertex="1">
          <mxGeometry x="589" y="1193" width="80" height="80" as="geometry" />
        </mxCell>
        <mxCell id="IChi7haE0IejocVg19P0-26" value="RUN_Open" style="rounded=1;whiteSpace=wrap;html=1;fillColor=#e1d5e7;strokeColor=#9673a6;" parent="1" vertex="1">
          <mxGeometry x="904" y="1203" width="120" height="60" as="geometry" />
        </mxCell>
        <mxCell id="IChi7haE0IejocVg19P0-51" style="edgeStyle=orthogonalEdgeStyle;rounded=1;orthogonalLoop=1;jettySize=auto;html=1;entryX=1;entryY=0.5;entryDx=0;entryDy=0;dashed=1;dashPattern=1 1;startArrow=diamond;startFill=0;strokeColor=#CC00CC;" parent="1" source="IChi7haE0IejocVg19P0-52" target="IChi7haE0IejocVg19P0-70" edge="1">
          <mxGeometry relative="1" as="geometry">
            <mxPoint x="1938" y="1015" as="targetPoint" />
          </mxGeometry>
        </mxCell>
        <mxCell id="IChi7haE0IejocVg19P0-52" value="FB_Close" style="rounded=1;whiteSpace=wrap;html=1;fillColor=#e1d5e7;strokeColor=#9673a6;" parent="1" vertex="1">
          <mxGeometry x="1534" y="1095" width="120" height="60" as="geometry" />
        </mxCell>
        <mxCell id="IChi7haE0IejocVg19P0-55" value="FALSE =&amp;gt; RESET" style="edgeStyle=orthogonalEdgeStyle;rounded=0;orthogonalLoop=1;jettySize=auto;html=1;entryX=1;entryY=0.5;entryDx=0;entryDy=0;startArrow=none;startFill=0;strokeColor=#000000;exitX=0;exitY=0.5;exitDx=0;exitDy=0;" parent="1" source="IChi7haE0IejocVg19P0-72" target="IChi7haE0IejocVg19P0-57" edge="1">
          <mxGeometry relative="1" as="geometry">
            <mxPoint x="1688" y="1237" as="sourcePoint" />
            <mxPoint x="1257" y="1233" as="targetPoint" />
          </mxGeometry>
        </mxCell>
        <mxCell id="IChi7haE0IejocVg19P0-57" value="RUN_Close" style="rounded=1;whiteSpace=wrap;html=1;fillColor=#e1d5e7;strokeColor=#9673a6;" parent="1" vertex="1">
          <mxGeometry x="1054" y="1199" width="120" height="60" as="geometry" />
        </mxCell>
        <mxCell id="IChi7haE0IejocVg19P0-58" style="edgeStyle=orthogonalEdgeStyle;rounded=1;orthogonalLoop=1;jettySize=auto;html=1;startArrow=diamond;startFill=0;dashed=1;dashPattern=1 1;strokeColor=#00FF00;entryX=0.5;entryY=0;entryDx=0;entryDy=0;" parent="1" source="IChi7haE0IejocVg19P0-59" target="IChi7haE0IejocVg19P0-67" edge="1">
          <mxGeometry relative="1" as="geometry">
            <mxPoint x="1454" y="1100" as="targetPoint" />
          </mxGeometry>
        </mxCell>
        <mxCell id="IChi7haE0IejocVg19P0-78" value="TRUE = &amp;gt; SET" style="edgeStyle=orthogonalEdgeStyle;rounded=0;orthogonalLoop=1;jettySize=auto;html=1;entryX=0.5;entryY=0;entryDx=0;entryDy=0;startArrow=none;startFill=0;endArrow=classic;endFill=1;strokeColor=#000000;" parent="1" source="IChi7haE0IejocVg19P0-59" target="IChi7haE0IejocVg19P0-57" edge="1">
          <mxGeometry x="-0.1708" relative="1" as="geometry">
            <mxPoint as="offset" />
          </mxGeometry>
        </mxCell>
        <mxCell id="IChi7haE0IejocVg19P0-79" value="TRUE =&amp;gt; RESET" style="edgeStyle=orthogonalEdgeStyle;rounded=0;orthogonalLoop=1;jettySize=auto;html=1;entryX=0.75;entryY=0;entryDx=0;entryDy=0;startArrow=none;startFill=0;endArrow=classic;endFill=1;strokeColor=#000000;" parent="1" edge="1">
          <mxGeometry x="-0.5706" relative="1" as="geometry">
            <Array as="points">
              <mxPoint x="994" y="920" />
            </Array>
            <mxPoint x="1377" y="920" as="sourcePoint" />
            <mxPoint x="994" y="1203" as="targetPoint" />
            <mxPoint as="offset" />
          </mxGeometry>
        </mxCell>
        <mxCell id="IChi7haE0IejocVg19P0-59" value="Цикл закрытия" style="rounded=0;whiteSpace=wrap;html=1;fontSize=12;strokeColor=#36393d;fillColor=#eeeeee;" parent="1" vertex="1">
          <mxGeometry x="1377" y="870" width="120" height="60" as="geometry" />
        </mxCell>
        <mxCell id="IChi7haE0IejocVg19P0-66" style="edgeStyle=orthogonalEdgeStyle;rounded=1;orthogonalLoop=1;jettySize=auto;html=1;entryX=0.5;entryY=0;entryDx=0;entryDy=0;dashed=1;dashPattern=1 1;startArrow=diamond;startFill=0;strokeColor=#00FF00;" parent="1" source="IChi7haE0IejocVg19P0-67" target="IChi7haE0IejocVg19P0-70" edge="1">
          <mxGeometry relative="1" as="geometry" />
        </mxCell>
        <mxCell id="IChi7haE0IejocVg19P0-67" value="Таймер ОС &lt;br&gt;&quot;Закрыто&quot;" style="shape=process;whiteSpace=wrap;html=1;backgroundOutline=1;fillColor=#f5f5f5;fontColor=#333333;strokeColor=#666666;" parent="1" vertex="1">
          <mxGeometry x="1377" y="990" width="120" height="60" as="geometry" />
        </mxCell>
        <mxCell id="IChi7haE0IejocVg19P0-68" style="edgeStyle=orthogonalEdgeStyle;rounded=1;orthogonalLoop=1;jettySize=auto;html=1;entryX=1;entryY=0.5;entryDx=0;entryDy=0;dashed=1;dashPattern=1 1;startArrow=diamond;startFill=0;strokeColor=#FF0000;" parent="1" source="IChi7haE0IejocVg19P0-70" target="IChi7haE0IejocVg19P0-71" edge="1">
          <mxGeometry relative="1" as="geometry" />
        </mxCell>
        <mxCell id="IChi7haE0IejocVg19P0-69" style="edgeStyle=orthogonalEdgeStyle;rounded=1;orthogonalLoop=1;jettySize=auto;html=1;entryX=0.5;entryY=0;entryDx=0;entryDy=0;startArrow=none;startFill=0;strokeColor=#000000;" parent="1" source="IChi7haE0IejocVg19P0-70" target="IChi7haE0IejocVg19P0-72" edge="1">
          <mxGeometry relative="1" as="geometry" />
        </mxCell>
        <mxCell id="IChi7haE0IejocVg19P0-70" value="ОС &quot;Закрыто&quot;" style="rhombus;whiteSpace=wrap;html=1;fillColor=#f5f5f5;fontColor=#333333;strokeColor=#666666;" parent="1" vertex="1">
          <mxGeometry x="1397" y="1085" width="80" height="80" as="geometry" />
        </mxCell>
        <mxCell id="IChi7haE0IejocVg19P0-71" value="Авария код 14" style="shape=process;whiteSpace=wrap;html=1;backgroundOutline=1;fillColor=#CCE5FF;fontColor=default;strokeColor=#FF0000;rounded=1;shadow=0;glass=0;labelBackgroundColor=none;labelBorderColor=none;sketch=0;strokeWidth=1;" parent="1" vertex="1">
          <mxGeometry x="1227" y="1107" width="120" height="36" as="geometry" />
        </mxCell>
        <mxCell id="IChi7haE0IejocVg19P0-72" value="Пневматика" style="rhombus;whiteSpace=wrap;html=1;fillColor=#f5f5f5;fontColor=#333333;strokeColor=#666666;" parent="1" vertex="1">
          <mxGeometry x="1397" y="1193" width="80" height="80" as="geometry" />
        </mxCell>
        <mxCell id="C2_vjTLhkUsUhfX_nYP3-1" style="edgeStyle=orthogonalEdgeStyle;rounded=0;orthogonalLoop=1;jettySize=auto;html=1;exitX=0.75;exitY=1;exitDx=0;exitDy=0;entryX=0.75;entryY=0;entryDx=0;entryDy=0;dashed=1;dashPattern=1 1;fontSize=12;startArrow=diamond;startFill=0;strokeColor=#FF0000;" parent="1" edge="1">
          <mxGeometry relative="1" as="geometry">
            <mxPoint x="773.5" y="260" as="sourcePoint" />
            <mxPoint x="773.5" y="310" as="targetPoint" />
          </mxGeometry>
        </mxCell>
        <mxCell id="C2_vjTLhkUsUhfX_nYP3-2" value="FB_TS&lt;br&gt;state.alm_TS" style="rounded=1;whiteSpace=wrap;html=1;fontSize=12;fillColor=#e1d5e7;strokeColor=#9673a6;" parent="1" vertex="1">
          <mxGeometry x="713.5" y="200" width="120" height="60" as="geometry" />
        </mxCell>
        <mxCell id="C2_vjTLhkUsUhfX_nYP3-3" value="FB_SRV&lt;br&gt;CMD.Service&lt;br&gt;state.Service" style="rounded=1;whiteSpace=wrap;html=1;fontSize=12;fillColor=#e1d5e7;strokeColor=#9673a6;" parent="1" vertex="1">
          <mxGeometry x="1013.5" y="200" width="120" height="60" as="geometry" />
        </mxCell>
        <mxCell id="C2_vjTLhkUsUhfX_nYP3-4" style="edgeStyle=orthogonalEdgeStyle;rounded=0;orthogonalLoop=1;jettySize=auto;html=1;exitX=0.75;exitY=1;exitDx=0;exitDy=0;entryX=0.75;entryY=0;entryDx=0;entryDy=0;dashed=1;dashPattern=1 1;fontSize=12;startArrow=diamond;startFill=0;strokeColor=#FF0000;" parent="1" edge="1">
          <mxGeometry relative="1" as="geometry">
            <mxPoint x="923.5" y="260" as="sourcePoint" />
            <mxPoint x="923.5" y="310" as="targetPoint" />
          </mxGeometry>
        </mxCell>
        <mxCell id="C2_vjTLhkUsUhfX_nYP3-5" value="FB_SF&lt;br&gt;state.alm_SF" style="rounded=1;whiteSpace=wrap;html=1;fontSize=12;fillColor=#e1d5e7;strokeColor=#9673a6;" parent="1" vertex="1">
          <mxGeometry x="863.5" y="200" width="120" height="60" as="geometry" />
        </mxCell>
        <mxCell id="C2_vjTLhkUsUhfX_nYP3-6" style="edgeStyle=orthogonalEdgeStyle;rounded=0;orthogonalLoop=1;jettySize=auto;html=1;entryX=0.303;entryY=0.009;entryDx=0;entryDy=0;entryPerimeter=0;dashed=1;dashPattern=1 1;fontSize=12;startArrow=diamond;startFill=0;endArrow=classic;endFill=1;strokeColor=#00FF00;" parent="1" source="C2_vjTLhkUsUhfX_nYP3-7" target="C2_vjTLhkUsUhfX_nYP3-13" edge="1">
          <mxGeometry relative="1" as="geometry" />
        </mxCell>
        <mxCell id="C2_vjTLhkUsUhfX_nYP3-7" value="Авария&lt;br&gt;&quot;перегрев двигателя&quot;" style="rounded=1;whiteSpace=wrap;html=1;fontSize=12;fillColor=#CCE5FF;strokeColor=#FF0000;shadow=0;glass=0;labelBackgroundColor=none;labelBorderColor=none;sketch=0;strokeWidth=1;" parent="1" vertex="1">
          <mxGeometry x="713.5" y="310" width="120" height="60" as="geometry" />
        </mxCell>
        <mxCell id="C2_vjTLhkUsUhfX_nYP3-8" style="edgeStyle=orthogonalEdgeStyle;rounded=0;orthogonalLoop=1;jettySize=auto;html=1;entryX=0.5;entryY=0;entryDx=0;entryDy=0;fontSize=12;startArrow=none;startFill=0;endArrow=classic;endFill=1;strokeColor=#000000;fillColor=#eeeeee;" parent="1" source="C2_vjTLhkUsUhfX_nYP3-9" edge="1">
          <mxGeometry relative="1" as="geometry">
            <mxPoint x="1073.5" y="460" as="targetPoint" />
          </mxGeometry>
        </mxCell>
        <mxCell id="C2_vjTLhkUsUhfX_nYP3-9" value="Режим работы: Сервис" style="rounded=0;whiteSpace=wrap;html=1;fontSize=12;fillColor=#eeeeee;strokeColor=#36393d;" parent="1" vertex="1">
          <mxGeometry x="1013.5" y="310" width="120" height="60" as="geometry" />
        </mxCell>
        <mxCell id="C2_vjTLhkUsUhfX_nYP3-10" style="edgeStyle=orthogonalEdgeStyle;rounded=0;orthogonalLoop=1;jettySize=auto;html=1;entryX=0.75;entryY=0;entryDx=0;entryDy=0;fontSize=12;startArrow=diamond;startFill=0;endArrow=classic;endFill=1;strokeColor=#00FF00;dashed=1;dashPattern=1 1;exitX=0.5;exitY=1;exitDx=0;exitDy=0;" parent="1" source="C2_vjTLhkUsUhfX_nYP3-11" target="C2_vjTLhkUsUhfX_nYP3-13" edge="1">
          <mxGeometry relative="1" as="geometry" />
        </mxCell>
        <mxCell id="C2_vjTLhkUsUhfX_nYP3-11" value="Авария&lt;br&gt;&quot;сработало реле безопасности&quot;" style="rounded=1;whiteSpace=wrap;html=1;fontSize=12;fillColor=#CCE5FF;strokeColor=#FF0000;shadow=0;glass=0;labelBackgroundColor=none;labelBorderColor=none;sketch=0;strokeWidth=1;" parent="1" vertex="1">
          <mxGeometry x="863.5" y="310" width="120" height="60" as="geometry" />
        </mxCell>
        <mxCell id="C2_vjTLhkUsUhfX_nYP3-12" style="edgeStyle=orthogonalEdgeStyle;rounded=0;orthogonalLoop=1;jettySize=auto;html=1;fontSize=12;startArrow=none;startFill=0;endArrow=classic;endFill=1;strokeColor=#000000;entryX=0;entryY=0.5;entryDx=0;entryDy=0;" parent="1" source="C2_vjTLhkUsUhfX_nYP3-13" target="C2_vjTLhkUsUhfX_nYP3-15" edge="1">
          <mxGeometry relative="1" as="geometry">
            <mxPoint x="1029.5" y="490" as="targetPoint" />
          </mxGeometry>
        </mxCell>
        <mxCell id="C2_vjTLhkUsUhfX_nYP3-13" value="Авария&lt;br&gt;общая&lt;br&gt;CMD.Alarm&lt;br&gt;state.Alarm" style="rounded=0;whiteSpace=wrap;html=1;fontSize=12;fillColor=#eeeeee;strokeColor=#36393d;" parent="1" vertex="1">
          <mxGeometry x="737.5" y="460" width="120" height="60" as="geometry" />
        </mxCell>
        <mxCell id="C2_vjTLhkUsUhfX_nYP3-14" style="edgeStyle=orthogonalEdgeStyle;rounded=0;orthogonalLoop=1;jettySize=auto;html=1;exitX=0.75;exitY=1;exitDx=0;exitDy=0;entryX=0.75;entryY=0;entryDx=0;entryDy=0;dashed=1;dashPattern=1 1;fontSize=12;startArrow=diamond;startFill=0;strokeColor=#FF0000;" parent="1" edge="1">
          <mxGeometry relative="1" as="geometry">
            <mxPoint x="1073.5" y="260" as="sourcePoint" />
            <mxPoint x="1073.5" y="310" as="targetPoint" />
          </mxGeometry>
        </mxCell>
        <mxCell id="C2_vjTLhkUsUhfX_nYP3-15" value="Отключение&lt;br&gt;устройства" style="rounded=0;whiteSpace=wrap;html=1;fontSize=12;strokeColor=#36393d;fillColor=#eeeeee;" parent="1" vertex="1">
          <mxGeometry x="1013.5" y="460" width="120" height="60" as="geometry" />
        </mxCell>
        <mxCell id="C2_vjTLhkUsUhfX_nYP3-16" value="" style="edgeStyle=orthogonalEdgeStyle;rounded=0;orthogonalLoop=1;jettySize=auto;html=1;exitX=0.75;exitY=1;exitDx=0;exitDy=0;entryX=0.75;entryY=0;entryDx=0;entryDy=0;fontSize=12;startArrow=diamond;startFill=0;dashed=1;dashPattern=1 1;strokeColor=#FF0000;" parent="1" edge="1">
          <mxGeometry relative="1" as="geometry">
            <mxPoint x="620" y="260" as="sourcePoint" />
            <mxPoint x="620" y="310" as="targetPoint" />
          </mxGeometry>
        </mxCell>
        <mxCell id="C2_vjTLhkUsUhfX_nYP3-17" value="Ext_alm&lt;br&gt;state.alm_Ext" style="rounded=1;whiteSpace=wrap;html=1;fontSize=12;fillColor=#e1d5e7;strokeColor=#9673a6;" parent="1" vertex="1">
          <mxGeometry x="560" y="200" width="120" height="60" as="geometry" />
        </mxCell>
        <mxCell id="C2_vjTLhkUsUhfX_nYP3-18" value="Авария&lt;br&gt;&quot;внешняя авария&quot;" style="rounded=1;whiteSpace=wrap;html=1;fontSize=12;fillColor=#CCE5FF;strokeColor=#FF0000;shadow=0;glass=0;labelBackgroundColor=none;labelBorderColor=none;sketch=0;strokeWidth=1;" parent="1" vertex="1">
          <mxGeometry x="560" y="310" width="120" height="60" as="geometry" />
        </mxCell>
        <mxCell id="C2_vjTLhkUsUhfX_nYP3-19" style="edgeStyle=orthogonalEdgeStyle;rounded=0;orthogonalLoop=1;jettySize=auto;html=1;entryX=0;entryY=0.25;entryDx=0;entryDy=0;dashed=1;dashPattern=1 1;fontSize=12;startArrow=diamond;startFill=0;endArrow=classic;endFill=1;strokeColor=#00FF00;exitX=0.5;exitY=1;exitDx=0;exitDy=0;" parent="1" source="C2_vjTLhkUsUhfX_nYP3-18" target="C2_vjTLhkUsUhfX_nYP3-13" edge="1">
          <mxGeometry relative="1" as="geometry">
            <mxPoint x="609.5" y="392" as="sourcePoint" />
            <mxPoint x="609.8600000000001" y="482.53999999999996" as="targetPoint" />
          </mxGeometry>
        </mxCell>
        <mxCell id="C2_vjTLhkUsUhfX_nYP3-20" value="FB_QF&lt;br&gt;state.alm_QF" style="rounded=1;whiteSpace=wrap;html=1;fontSize=12;fillColor=#e1d5e7;strokeColor=#9673a6;" parent="1" vertex="1">
          <mxGeometry x="414" y="200" width="120" height="60" as="geometry" />
        </mxCell>
        <mxCell id="C2_vjTLhkUsUhfX_nYP3-21" style="edgeStyle=orthogonalEdgeStyle;rounded=0;orthogonalLoop=1;jettySize=auto;html=1;entryX=0;entryY=0.5;entryDx=0;entryDy=0;" parent="1" source="C2_vjTLhkUsUhfX_nYP3-23" target="C2_vjTLhkUsUhfX_nYP3-37" edge="1">
          <mxGeometry relative="1" as="geometry">
            <Array as="points">
              <mxPoint x="502" y="1383" />
            </Array>
          </mxGeometry>
        </mxCell>
        <mxCell id="C2_vjTLhkUsUhfX_nYP3-22" style="edgeStyle=orthogonalEdgeStyle;rounded=0;orthogonalLoop=1;jettySize=auto;html=1;entryX=1;entryY=0.5;entryDx=0;entryDy=0;exitX=0.5;exitY=1;exitDx=0;exitDy=0;" parent="1" source="C2_vjTLhkUsUhfX_nYP3-23" target="C2_vjTLhkUsUhfX_nYP3-47" edge="1">
          <mxGeometry relative="1" as="geometry">
            <Array as="points">
              <mxPoint x="502" y="1563" />
              <mxPoint x="1472" y="1563" />
              <mxPoint x="1472" y="1383" />
            </Array>
          </mxGeometry>
        </mxCell>
        <mxCell id="C2_vjTLhkUsUhfX_nYP3-23" value="FB_KM&lt;br&gt;Сигнал ОС&lt;br&gt;&quot;В работе&quot;" style="rounded=1;whiteSpace=wrap;html=1;fontSize=12;fillColor=#e1d5e7;strokeColor=#9673a6;" parent="1" vertex="1">
          <mxGeometry x="442" y="1353" width="120" height="60" as="geometry" />
        </mxCell>
        <mxCell id="C2_vjTLhkUsUhfX_nYP3-24" style="edgeStyle=orthogonalEdgeStyle;rounded=0;orthogonalLoop=1;jettySize=auto;html=1;exitX=0.5;exitY=1;exitDx=0;exitDy=0;entryX=0.5;entryY=0;entryDx=0;entryDy=0;fontSize=12;startArrow=none;startFill=0;strokeColor=#000000;" parent="1" source="IChi7haE0IejocVg19P0-26" target="C2_vjTLhkUsUhfX_nYP3-34" edge="1">
          <mxGeometry relative="1" as="geometry">
            <Array as="points">
              <mxPoint x="964" y="1283" />
              <mxPoint x="917" y="1283" />
            </Array>
            <mxPoint x="977" y="1273" as="sourcePoint" />
          </mxGeometry>
        </mxCell>
        <mxCell id="C2_vjTLhkUsUhfX_nYP3-25" style="edgeStyle=orthogonalEdgeStyle;rounded=0;orthogonalLoop=1;jettySize=auto;html=1;exitX=0.5;exitY=1;exitDx=0;exitDy=0;entryX=0.5;entryY=0;entryDx=0;entryDy=0;fontSize=12;startArrow=none;startFill=0;endArrow=classic;endFill=1;strokeColor=#000000;" parent="1" source="IChi7haE0IejocVg19P0-57" target="C2_vjTLhkUsUhfX_nYP3-44" edge="1">
          <mxGeometry relative="1" as="geometry">
            <Array as="points">
              <mxPoint x="1114" y="1283" />
              <mxPoint x="1169" y="1283" />
            </Array>
            <mxPoint x="1109" y="1273" as="sourcePoint" />
          </mxGeometry>
        </mxCell>
        <mxCell id="C2_vjTLhkUsUhfX_nYP3-26" value="" style="rounded=0;whiteSpace=wrap;html=1;fillColor=none;dashed=1;strokeColor=#000000;" parent="1" vertex="1">
          <mxGeometry x="646" y="1293" width="380" height="250" as="geometry" />
        </mxCell>
        <mxCell id="C2_vjTLhkUsUhfX_nYP3-27" value="Контроль запуска" style="text;html=1;strokeColor=none;fillColor=none;align=left;verticalAlign=middle;whiteSpace=wrap;rounded=0;dashed=1;" parent="1" vertex="1">
          <mxGeometry x="660" y="1293" width="210" height="40" as="geometry" />
        </mxCell>
        <mxCell id="C2_vjTLhkUsUhfX_nYP3-28" value="" style="rounded=0;whiteSpace=wrap;html=1;fillColor=none;dashed=1;strokeColor=#000000;" parent="1" vertex="1">
          <mxGeometry x="1058" y="1293" width="400" height="250" as="geometry" />
        </mxCell>
        <mxCell id="C2_vjTLhkUsUhfX_nYP3-29" value="Контроль останова" style="text;html=1;strokeColor=none;fillColor=none;align=left;verticalAlign=middle;whiteSpace=wrap;rounded=0;dashed=1;" parent="1" vertex="1">
          <mxGeometry x="1334" y="1293" width="140" height="40" as="geometry" />
        </mxCell>
        <mxCell id="C2_vjTLhkUsUhfX_nYP3-30" style="edgeStyle=orthogonalEdgeStyle;rounded=0;orthogonalLoop=1;jettySize=auto;html=1;entryX=1;entryY=0.5;entryDx=0;entryDy=0;fontSize=12;startArrow=diamond;startFill=0;strokeColor=#FF0000;dashed=1;dashPattern=1 1;" parent="1" source="C2_vjTLhkUsUhfX_nYP3-32" target="C2_vjTLhkUsUhfX_nYP3-37" edge="1">
          <mxGeometry relative="1" as="geometry" />
        </mxCell>
        <mxCell id="C2_vjTLhkUsUhfX_nYP3-31" style="edgeStyle=orthogonalEdgeStyle;rounded=0;orthogonalLoop=1;jettySize=auto;html=1;entryX=0.5;entryY=0;entryDx=0;entryDy=0;dashed=1;dashPattern=1 1;fontSize=12;startArrow=diamond;startFill=0;strokeColor=#00FF00;" parent="1" source="C2_vjTLhkUsUhfX_nYP3-32" target="C2_vjTLhkUsUhfX_nYP3-39" edge="1">
          <mxGeometry relative="1" as="geometry" />
        </mxCell>
        <mxCell id="C2_vjTLhkUsUhfX_nYP3-32" value="Запуск таймера &quot;время запуска&quot;" style="shape=process;whiteSpace=wrap;html=1;backgroundOutline=1;fontSize=12;fillColor=#eeeeee;strokeColor=#36393d;" parent="1" vertex="1">
          <mxGeometry x="857" y="1358" width="120" height="50" as="geometry" />
        </mxCell>
        <mxCell id="C2_vjTLhkUsUhfX_nYP3-33" style="edgeStyle=orthogonalEdgeStyle;rounded=0;orthogonalLoop=1;jettySize=auto;html=1;entryX=0.5;entryY=0;entryDx=0;entryDy=0;fontSize=12;startArrow=none;startFill=0;strokeColor=#000000;" parent="1" source="C2_vjTLhkUsUhfX_nYP3-34" target="C2_vjTLhkUsUhfX_nYP3-32" edge="1">
          <mxGeometry relative="1" as="geometry" />
        </mxCell>
        <mxCell id="C2_vjTLhkUsUhfX_nYP3-34" value="Статус: Открывается&lt;br&gt;Код = 2" style="rounded=0;whiteSpace=wrap;html=1;fontSize=12;fillColor=#eeeeee;strokeColor=#36393d;" parent="1" vertex="1">
          <mxGeometry x="857" y="1303" width="120" height="30" as="geometry" />
        </mxCell>
        <mxCell id="C2_vjTLhkUsUhfX_nYP3-35" value="TRUE" style="edgeStyle=orthogonalEdgeStyle;rounded=0;orthogonalLoop=1;jettySize=auto;html=1;entryX=0.5;entryY=0;entryDx=0;entryDy=0;fontSize=12;startArrow=none;startFill=0;strokeColor=#000000;exitX=0;exitY=1;exitDx=0;exitDy=0;" parent="1" source="C2_vjTLhkUsUhfX_nYP3-37" target="C2_vjTLhkUsUhfX_nYP3-38" edge="1">
          <mxGeometry relative="1" as="geometry" />
        </mxCell>
        <mxCell id="C2_vjTLhkUsUhfX_nYP3-36" value="FALSE" style="edgeStyle=orthogonalEdgeStyle;rounded=0;orthogonalLoop=1;jettySize=auto;html=1;exitX=1;exitY=1;exitDx=0;exitDy=0;entryX=0;entryY=0.5;entryDx=0;entryDy=0;fontSize=12;startArrow=none;startFill=0;strokeColor=#000000;" parent="1" source="C2_vjTLhkUsUhfX_nYP3-37" target="C2_vjTLhkUsUhfX_nYP3-39" edge="1">
          <mxGeometry x="0.0819" relative="1" as="geometry">
            <mxPoint as="offset" />
          </mxGeometry>
        </mxCell>
        <mxCell id="C2_vjTLhkUsUhfX_nYP3-37" value="Контроль ОС&amp;nbsp;&lt;br&gt;&quot;В работе&quot;" style="rhombus;whiteSpace=wrap;html=1;fontSize=12;fillColor=#eeeeee;strokeColor=#36393d;" parent="1" vertex="1">
          <mxGeometry x="695" y="1333" width="101" height="100" as="geometry" />
        </mxCell>
        <mxCell id="C2_vjTLhkUsUhfX_nYP3-38" value="Статус: Открыто&lt;br&gt;Код = 1" style="rounded=0;whiteSpace=wrap;html=1;fontSize=12;fillColor=#eeeeee;strokeColor=#36393d;" parent="1" vertex="1">
          <mxGeometry x="660" y="1493" width="120" height="30" as="geometry" />
        </mxCell>
        <mxCell id="C2_vjTLhkUsUhfX_nYP3-39" value="Статус: Авария&lt;br&gt;при открытии" style="rounded=1;whiteSpace=wrap;html=1;fontSize=12;fillColor=#CCE5FF;strokeColor=#FF0000;shadow=0;glass=0;labelBackgroundColor=none;labelBorderColor=none;sketch=0;strokeWidth=1;" parent="1" vertex="1">
          <mxGeometry x="857" y="1493" width="120" height="30" as="geometry" />
        </mxCell>
        <mxCell id="C2_vjTLhkUsUhfX_nYP3-40" style="edgeStyle=orthogonalEdgeStyle;rounded=0;orthogonalLoop=1;jettySize=auto;html=1;entryX=0;entryY=0.5;entryDx=0;entryDy=0;fontSize=12;startArrow=diamond;startFill=0;strokeColor=#FF0000;dashed=1;dashPattern=1 1;" parent="1" source="C2_vjTLhkUsUhfX_nYP3-42" target="C2_vjTLhkUsUhfX_nYP3-47" edge="1">
          <mxGeometry relative="1" as="geometry" />
        </mxCell>
        <mxCell id="C2_vjTLhkUsUhfX_nYP3-41" style="edgeStyle=orthogonalEdgeStyle;rounded=0;orthogonalLoop=1;jettySize=auto;html=1;entryX=0.5;entryY=0;entryDx=0;entryDy=0;dashed=1;dashPattern=1 1;fontSize=12;startArrow=diamond;startFill=0;strokeColor=#00FF00;" parent="1" source="C2_vjTLhkUsUhfX_nYP3-42" target="C2_vjTLhkUsUhfX_nYP3-50" edge="1">
          <mxGeometry relative="1" as="geometry" />
        </mxCell>
        <mxCell id="C2_vjTLhkUsUhfX_nYP3-42" value="Запуск таймера &quot;время останова&quot;" style="shape=process;whiteSpace=wrap;html=1;backgroundOutline=1;fontSize=12;fillColor=#eeeeee;strokeColor=#36393d;" parent="1" vertex="1">
          <mxGeometry x="1109" y="1358" width="120" height="50" as="geometry" />
        </mxCell>
        <mxCell id="C2_vjTLhkUsUhfX_nYP3-43" style="edgeStyle=orthogonalEdgeStyle;rounded=0;orthogonalLoop=1;jettySize=auto;html=1;entryX=0.5;entryY=0;entryDx=0;entryDy=0;fontSize=12;startArrow=none;startFill=0;strokeColor=#000000;" parent="1" source="C2_vjTLhkUsUhfX_nYP3-44" target="C2_vjTLhkUsUhfX_nYP3-42" edge="1">
          <mxGeometry relative="1" as="geometry" />
        </mxCell>
        <mxCell id="C2_vjTLhkUsUhfX_nYP3-44" value="Статус: Закрывается&lt;br&gt;Код = 3" style="rounded=0;whiteSpace=wrap;html=1;fontSize=12;fillColor=#eeeeee;strokeColor=#36393d;" parent="1" vertex="1">
          <mxGeometry x="1109" y="1303" width="120" height="30" as="geometry" />
        </mxCell>
        <mxCell id="C2_vjTLhkUsUhfX_nYP3-45" value="FALSE" style="edgeStyle=orthogonalEdgeStyle;rounded=0;orthogonalLoop=1;jettySize=auto;html=1;entryX=0.5;entryY=0;entryDx=0;entryDy=0;fontSize=12;startArrow=none;startFill=0;strokeColor=#000000;exitX=1;exitY=1;exitDx=0;exitDy=0;" parent="1" source="C2_vjTLhkUsUhfX_nYP3-47" target="C2_vjTLhkUsUhfX_nYP3-48" edge="1">
          <mxGeometry relative="1" as="geometry" />
        </mxCell>
        <mxCell id="C2_vjTLhkUsUhfX_nYP3-46" value="TRUE" style="edgeStyle=orthogonalEdgeStyle;rounded=0;orthogonalLoop=1;jettySize=auto;html=1;exitX=1;exitY=1;exitDx=0;exitDy=0;entryX=1;entryY=0.5;entryDx=0;entryDy=0;fontSize=12;startArrow=none;startFill=0;strokeColor=#000000;" parent="1" source="C2_vjTLhkUsUhfX_nYP3-47" target="C2_vjTLhkUsUhfX_nYP3-50" edge="1">
          <mxGeometry x="0.3377" relative="1" as="geometry">
            <Array as="points">
              <mxPoint x="1379" y="1397" />
              <mxPoint x="1264" y="1397" />
              <mxPoint x="1264" y="1508" />
            </Array>
            <mxPoint as="offset" />
          </mxGeometry>
        </mxCell>
        <mxCell id="C2_vjTLhkUsUhfX_nYP3-47" value="Контроль ОС&amp;nbsp;&lt;br&gt;&quot;В работе&quot;" style="rhombus;whiteSpace=wrap;html=1;fontSize=12;fillColor=#eeeeee;strokeColor=#36393d;" parent="1" vertex="1">
          <mxGeometry x="1303" y="1333" width="101" height="100" as="geometry" />
        </mxCell>
        <mxCell id="C2_vjTLhkUsUhfX_nYP3-48" value="Статус: Закрыто&lt;br&gt;Код = 0" style="rounded=0;whiteSpace=wrap;html=1;fontSize=12;fillColor=#eeeeee;strokeColor=#36393d;" parent="1" vertex="1">
          <mxGeometry x="1319" y="1493" width="120" height="30" as="geometry" />
        </mxCell>
        <mxCell id="C2_vjTLhkUsUhfX_nYP3-50" value="Статус: Авария&lt;br&gt;при закрытии" style="rounded=1;whiteSpace=wrap;html=1;fontSize=12;fillColor=#CCE5FF;strokeColor=#FF0000;shadow=0;glass=0;labelBackgroundColor=none;labelBorderColor=none;sketch=0;strokeWidth=1;" parent="1" vertex="1">
          <mxGeometry x="1109" y="1493" width="120" height="30" as="geometry" />
        </mxCell>
        <mxCell id="C2_vjTLhkUsUhfX_nYP3-52" style="edgeStyle=orthogonalEdgeStyle;rounded=1;orthogonalLoop=1;jettySize=auto;html=1;entryX=0.75;entryY=0;entryDx=0;entryDy=0;dashed=1;dashPattern=1 1;startArrow=diamond;startFill=0;strokeColor=#00FF00;exitX=1;exitY=1;exitDx=0;exitDy=0;" parent="1" source="IChi7haE0IejocVg19P0-70" target="C2_vjTLhkUsUhfX_nYP3-48" edge="1">
          <mxGeometry relative="1" as="geometry">
            <mxPoint x="1477" y="1060" as="sourcePoint" />
            <mxPoint x="1477" y="1095" as="targetPoint" />
            <Array as="points">
              <mxPoint x="1534" y="1145" />
              <mxPoint x="1534" y="1430" />
              <mxPoint x="1409" y="1430" />
            </Array>
          </mxGeometry>
        </mxCell>
        <mxCell id="C2_vjTLhkUsUhfX_nYP3-53" style="edgeStyle=orthogonalEdgeStyle;rounded=1;orthogonalLoop=1;jettySize=auto;html=1;entryX=0.25;entryY=0;entryDx=0;entryDy=0;startArrow=diamond;startFill=0;dashed=1;dashPattern=1 1;strokeColor=#00FF00;exitX=0;exitY=1;exitDx=0;exitDy=0;" parent="1" source="IChi7haE0IejocVg19P0-18" target="C2_vjTLhkUsUhfX_nYP3-38" edge="1">
          <mxGeometry relative="1" as="geometry">
            <mxPoint x="542" y="1000" as="targetPoint" />
            <mxPoint x="542" y="940" as="sourcePoint" />
            <Array as="points">
              <mxPoint x="609" y="1140" />
              <mxPoint x="584" y="1140" />
              <mxPoint x="584" y="1440" />
              <mxPoint x="690" y="1440" />
            </Array>
          </mxGeometry>
        </mxCell>
        <mxCell id="JQjxiRahyUip46O5yKaf-1" value="&lt;h1&gt;Заслонка&lt;/h1&gt;&lt;p&gt;Общий алгоритм управления задвижками и заслонками, дверями и им подобными механизмами с двумя крайними положениями.&lt;/p&gt;&lt;p&gt;Полный перечень всех возможных сигналов:&lt;br&gt;- QF - готовность, защитный автомат&lt;br&gt;- KM - в работе, положение пускателя&lt;br&gt;- Open - крайнее положение &quot;Открыто&quot;&lt;br&gt;- Close - крайнее положение &quot;Закрыто&quot;&lt;br&gt;- TS - термозащита, датчик защиты от перегрева&lt;br&gt;- SF - безопасность, датчик безопасности&lt;br&gt;&lt;span style=&quot;background-color: initial;&quot;&gt;- SRV - сервсиный выключатель&lt;br&gt;- Ext_alm - внешняя авария&lt;/span&gt;&lt;/p&gt;&lt;p&gt;Полный перечень всех возможных команд:&lt;br&gt;- CMD_Open - команда открытия&lt;br&gt;- CMD_Close - команда закрытия&lt;/p&gt;&lt;p&gt;Полный перечень параметров:&lt;br&gt;- задержка запуска&lt;br&gt;- задержка останова&lt;br&gt;- время контроля запуска&lt;br&gt;- время контроля останова&lt;br&gt;&lt;/p&gt;&lt;p&gt;Полный перечень аварий:&lt;br&gt;- выключен защитный автомат&lt;br&gt;- сработала термозащита&lt;br&gt;- сработало реле безопасности&lt;br&gt;- сработала внешняя авария&lt;br&gt;- ошибка открытия (нет сигнала &quot;В работе&quot; при открытии)&lt;br&gt;- ошибка закрытия(есть сигнал &quot;В работе&quot; при закрытии)&lt;br&gt;- ошибка открытия (не пришёл сигнал &quot;Открыто&quot; при открытии)&lt;br&gt;- ошибка закрытия (не пришёл сигнал &quot;Закрыто&quot; при закрытии)&lt;/p&gt;" style="text;html=1;strokeColor=none;fillColor=none;spacing=5;spacingTop=-20;whiteSpace=wrap;overflow=hidden;rounded=0;shadow=0;glass=0;sketch=0;" parent="1" vertex="1">
          <mxGeometry x="10" y="224" width="329" height="560" as="geometry" />
        </mxCell>
        <mxCell id="XzzlHY3-Pyuf3qzUPJis-1" value="" style="ellipse;whiteSpace=wrap;html=1;rounded=1;shadow=0;glass=0;labelBackgroundColor=none;labelBorderColor=none;sketch=0;" vertex="1" parent="1">
          <mxGeometry x="20" y="10" width="20" height="20" as="geometry" />
        </mxCell>
        <mxCell id="XzzlHY3-Pyuf3qzUPJis-2" value="" style="ellipse;whiteSpace=wrap;html=1;rounded=1;shadow=0;glass=0;labelBackgroundColor=none;labelBorderColor=none;sketch=0;fillColor=#eeeeee;strokeColor=#36393d;" vertex="1" parent="1">
          <mxGeometry x="20" y="40" width="20" height="20" as="geometry" />
        </mxCell>
        <mxCell id="XzzlHY3-Pyuf3qzUPJis-3" value="" style="ellipse;whiteSpace=wrap;html=1;rounded=1;shadow=0;glass=0;labelBackgroundColor=none;labelBorderColor=none;sketch=0;fillColor=#d5e8d4;strokeColor=#82b366;" vertex="1" parent="1">
          <mxGeometry x="20" y="70" width="20" height="20" as="geometry" />
        </mxCell>
        <mxCell id="XzzlHY3-Pyuf3qzUPJis-4" value="" style="ellipse;whiteSpace=wrap;html=1;rounded=1;shadow=0;glass=0;labelBackgroundColor=none;labelBorderColor=none;sketch=0;fillColor=#dae8fc;strokeColor=#00A800;strokeWidth=2;" vertex="1" parent="1">
          <mxGeometry x="20" y="100" width="20" height="20" as="geometry" />
        </mxCell>
        <mxCell id="XzzlHY3-Pyuf3qzUPJis-5" value="" style="ellipse;whiteSpace=wrap;html=1;rounded=1;shadow=0;glass=0;labelBackgroundColor=none;labelBorderColor=none;sketch=0;fillColor=#CCE5FF;strokeColor=#000000;strokeWidth=2;" vertex="1" parent="1">
          <mxGeometry x="20" y="130" width="20" height="20" as="geometry" />
        </mxCell>
        <mxCell id="XzzlHY3-Pyuf3qzUPJis-6" value="Глобальные переменные" style="text;html=1;strokeColor=none;fillColor=none;align=left;verticalAlign=middle;whiteSpace=wrap;rounded=0;shadow=0;glass=0;labelBackgroundColor=#FFFFFF;labelBorderColor=none;sketch=0;" vertex="1" parent="1">
          <mxGeometry x="46" y="12.5" width="150" height="15" as="geometry" />
        </mxCell>
        <mxCell id="XzzlHY3-Pyuf3qzUPJis-7" value="Внутренние переменные" style="text;html=1;strokeColor=none;fillColor=none;align=left;verticalAlign=middle;whiteSpace=wrap;rounded=0;shadow=0;glass=0;labelBackgroundColor=#FFFFFF;labelBorderColor=none;sketch=0;" vertex="1" parent="1">
          <mxGeometry x="46" y="45" width="150" height="15" as="geometry" />
        </mxCell>
        <mxCell id="XzzlHY3-Pyuf3qzUPJis-8" value="Управление из алгоритма" style="text;html=1;strokeColor=none;fillColor=none;align=left;verticalAlign=middle;whiteSpace=wrap;rounded=0;shadow=0;glass=0;labelBackgroundColor=#FFFFFF;labelBorderColor=none;sketch=0;" vertex="1" parent="1">
          <mxGeometry x="46" y="72.5" width="154" height="15" as="geometry" />
        </mxCell>
        <mxCell id="XzzlHY3-Pyuf3qzUPJis-9" value="Управление с HMI" style="text;html=1;strokeColor=none;fillColor=none;align=left;verticalAlign=middle;whiteSpace=wrap;rounded=0;shadow=0;glass=0;labelBackgroundColor=#FFFFFF;labelBorderColor=none;sketch=0;" vertex="1" parent="1">
          <mxGeometry x="46" y="105" width="150" height="15" as="geometry" />
        </mxCell>
        <mxCell id="XzzlHY3-Pyuf3qzUPJis-10" value="Отображение на HMI" style="text;html=1;strokeColor=none;fillColor=none;align=left;verticalAlign=middle;whiteSpace=wrap;rounded=0;shadow=0;glass=0;labelBackgroundColor=#FFFFFF;labelBorderColor=none;sketch=0;" vertex="1" parent="1">
          <mxGeometry x="46" y="135" width="150" height="15" as="geometry" />
        </mxCell>
        <mxCell id="XzzlHY3-Pyuf3qzUPJis-11" value="" style="ellipse;whiteSpace=wrap;html=1;rounded=1;shadow=0;glass=0;labelBackgroundColor=none;labelBorderColor=none;sketch=0;fillColor=#CCE5FF;strokeColor=#FF0000;strokeWidth=1;" vertex="1" parent="1">
          <mxGeometry x="20" y="160" width="20" height="20" as="geometry" />
        </mxCell>
        <mxCell id="XzzlHY3-Pyuf3qzUPJis-12" value="Аварии на HMI" style="text;html=1;strokeColor=none;fillColor=none;align=left;verticalAlign=middle;whiteSpace=wrap;rounded=0;shadow=0;glass=0;labelBackgroundColor=#FFFFFF;labelBorderColor=none;sketch=0;" vertex="1" parent="1">
          <mxGeometry x="46" y="165" width="150" height="15" as="geometry" />
        </mxCell>
        <mxCell id="XzzlHY3-Pyuf3qzUPJis-13" value="" style="ellipse;whiteSpace=wrap;html=1;rounded=1;shadow=0;glass=0;labelBackgroundColor=none;labelBorderColor=none;sketch=0;fillColor=#e1d5e7;strokeColor=#9673a6;" vertex="1" parent="1">
          <mxGeometry x="20" y="190" width="20" height="20" as="geometry" />
        </mxCell>
        <mxCell id="XzzlHY3-Pyuf3qzUPJis-14" value="Внешние сигналы" style="text;html=1;strokeColor=none;fillColor=none;align=left;verticalAlign=middle;whiteSpace=wrap;rounded=0;shadow=0;glass=0;labelBackgroundColor=#FFFFFF;labelBorderColor=none;sketch=0;" vertex="1" parent="1">
          <mxGeometry x="46" y="195" width="150" height="15" as="geometry" />
        </mxCell>
      </root>
    </mxGraphModel>
  </diagram>
</mxfile>
